<svg xmlns="http://www.w3.org/2000/svg" viewBox="0 0 512 512">
  <rect width="512" height="512" fill="#000"/>
  <g fill="none" stroke="#f8fafc" stroke-linecap="round" stroke-linejoin="round" stroke-width="8">
    <path d="M42 392c18-30 18-72 11-110-6-33-4-63 16-92 23-32 66-52 116-55 61-4 111 13 141 46 30 33 40 76 34 125-4 38-18 73-46 97-29 25-70 36-116 33-59-4-110-18-156-44"/>
    <path d="M83 405c7 14 25 33 52 47"/>
    <path d="M91 219c24-18 56-28 96-28 33 0 64 7 88 24"/>
    <path d="M153 246c-5 15 0 29 12 37 12 8 27 8 42 1"/>
    <path d="M231 246c4 17 16 28 31 31 14 2 28-4 39-17"/>
    <path d="M120 338c27 12 59 18 96 18 31 0 59-4 84-13"/>
    <path d="M138 310c19 15 42 23 70 24 29 1 55-7 79-25"/>
    <path d="M106 165c12-21 33-39 62-51"/>
    <path d="M285 168c12 11 22 25 31 43"/>
    <path d="M305 284c17-12 31-29 41-53"/>
    <path d="M320 216c10 7 20 18 30 35"/>
    <path d="M337 211c11-12 23-20 36-24 10-4 21-5 30-3 16 4 28 17 36 38"/>
    <path d="M359 203l84 57"/>
    <path d="M328 261l64 44"/>
    <path d="M387 194l89 18"/>
    <path d="M390 299l92 6"/>
    <path d="M447 211c17 2 31 8 41 16"/>
    <path d="M445 307c18 1 32 4 43 10"/>
    <path d="M365 231c6 30 7 61 2 96"/>
    <path d="M398 214c9 31 13 68 10 109"/>
    <path d="M441 225c6 28 9 59 9 92"/>
    <path d="M471 233c3 22 7 46 10 73"/>
    <path d="M310 211c17 7 31 16 44 29"/>
    <path d="M326 307c14-11 32-17 55-19 29-3 64 0 105 9"/>
  </g>
  <g fill="#54aefe">
    <path d="M144 276c8 4 12 15 10 26l-7 34c-1 7-9 12-16 9-6-2-10-9-8-16l9-33c2-9 6-18 12-20z"/>
    <path d="M232 276c8 4 12 14 11 24l-6 35c-1 7-9 12-16 10-7-2-11-9-10-15l9-34c3-10 6-18 12-20z"/>
  </g>
  <g fill="#f8fafc">
    <circle cx="165" cy="253" r="7"/>
    <circle cx="246" cy="252" r="7"/>
  </g>
</svg>
